<svg id="Layer_1" data-name="Layer 1" xmlns="http://www.w3.org/2000/svg" xmlns:xlink="http://www.w3.org/1999/xlink" viewBox="0 0 92.03 72.86"><defs><style>.cls-1{fill:none;}.cls-2{fill:#009b8c;}.cls-3{fill:#00b5ad;}.cls-4{fill:#e7e8ec;}.cls-5{fill:#fccf07;}.cls-6{clip-path:url(#clip-path);}.cls-7{fill:#fab306;}.cls-8{fill:#fcee8f;}.cls-9{clip-path:url(#clip-path-2);}.cls-10{clip-path:url(#clip-path-3);}</style><clipPath id="clip-path" transform="translate(0 0.01)"><rect class="cls-1" y="67.72" width="29.24" height="5.13" rx="1.39"/></clipPath><clipPath id="clip-path-2" transform="translate(0 0.01)"><rect class="cls-1" y="62.59" width="29.24" height="5.13" rx="1.39"/></clipPath><clipPath id="clip-path-3" transform="translate(0 0.01)"><rect class="cls-1" y="57.46" width="29.24" height="5.13" rx="1.39"/></clipPath></defs><title>icon1</title><path class="cls-2" d="M25.7,17.94,71.46.22A3.27,3.27,0,0,1,75.71,2.1h0L80.9,15.48A3.29,3.29,0,0,1,79,19.73h0L33.26,37.46h0L25.7,17.94Z" transform="translate(0 0.01)"/><path class="cls-3" d="M27.42,17.13l52-8.92A3.41,3.41,0,0,1,83.31,11h0l2.4,14a3.42,3.42,0,0,1-2.78,3.95h0L31,37.85h0L27.42,17.13Z" transform="translate(0 0.01)"/><rect class="cls-4" x="21.45" y="16.75" width="67.78" height="56.11" rx="4.65"/><rect class="cls-3" x="70.84" y="34.88" width="21.19" height="19.86" rx="3.59"/><circle class="cls-2" cx="81.43" cy="44.81" r="4.48"/><rect class="cls-5" y="67.73" width="29.24" height="5.13" rx="1.39"/><g class="cls-6"><rect class="cls-7" y="71.39" width="29.48" height="1.47"/></g><rect class="cls-8" x="3.61" y="67.73" width="4.16" height="3.66"/><rect class="cls-5" y="62.6" width="29.24" height="5.13" rx="1.39"/><g class="cls-9"><rect class="cls-7" y="66.26" width="29.48" height="1.47"/></g><rect class="cls-8" x="3.61" y="62.6" width="4.16" height="3.66"/><rect class="cls-5" y="57.47" width="29.24" height="5.13" rx="1.39"/><g class="cls-10"><rect class="cls-7" y="61.13" width="29.48" height="1.47"/></g><rect class="cls-8" x="3.61" y="57.47" width="4.16" height="3.66"/><circle class="cls-7" cx="27.61" cy="58.24" r="14.62"/><circle class="cls-8" cx="27.61" cy="58.24" r="12.2"/><circle class="cls-5" cx="27.61" cy="58.24" r="8.82"/></svg>