<svg id="Layer_1" data-name="Layer 1" xmlns="http://www.w3.org/2000/svg" xmlns:xlink="http://www.w3.org/1999/xlink" viewBox="0 0 63.02 78.42"><defs><style>.cls-1{fill:none;}.cls-2{fill:#eeeef6;stroke:#00b5ad;stroke-width:0.25px;}.cls-2,.cls-6{stroke-miterlimit:10;}.cls-2,.cls-5{fill-rule:evenodd;}.cls-3,.cls-5{fill:#00b5ad;}.cls-4{fill:#3be893;}.cls-6{fill:#e6e7eb;stroke:#fcfcfc;stroke-width:0.2px;}.cls-7{clip-path:url(#clip-path);}.cls-8{fill:#009b8c;}.cls-9{fill:#fff;}</style><clipPath id="clip-path" transform="translate(0.9 -1.67)"><path class="cls-1" d="M5.4,11.2H30.8a4.59,4.59,0,0,1,4.6,4.6V74a4.59,4.59,0,0,1-4.6,4.6H5.4A4.59,4.59,0,0,1,.8,74V15.9A4.55,4.55,0,0,1,5.4,11.2Z"/></clipPath></defs><title>icon2</title><path id="Fill-1-2" class="cls-2" d="M62,29.6A27.8,27.8,0,1,1,34.2,1.8h0A27.8,27.8,0,0,1,62,29.6h0" transform="translate(0.9 -1.67)"/><circle class="cls-3" cx="35.7" cy="42.62" r="8.3"/><path class="cls-3" d="M15.8,8.8a15.46,15.46,0,0,0,3.1.4A13.36,13.36,0,0,0,30.7,2.1,27.9,27.9,0,0,0,15.8,8.8Z" transform="translate(0.9 -1.67)"/><path class="cls-4" d="M6.6,32.2a28.1,28.1,0,0,0,6.9,15.9,12.26,12.26,0,0,0,.6-3.9A13.43,13.43,0,0,0,6.6,32.2Z" transform="translate(0.9 -1.67)"/><path class="cls-5" d="M36.7,1.9A20.16,20.16,0,0,0,51.3,36a20.06,20.06,0,0,0,10.5-3c.1-1.1.2-2.3.2-3.4h0A27.83,27.83,0,0,0,36.7,1.9Z" transform="translate(0.9 -1.67)"/><path class="cls-6" d="M5.4,11.2H30.8a4.59,4.59,0,0,1,4.6,4.6V74a4.59,4.59,0,0,1-4.6,4.6H5.4A4.59,4.59,0,0,1,.8,74V15.9A4.55,4.55,0,0,1,5.4,11.2Z" transform="translate(0.9 -1.67)"/><g class="cls-7"><rect class="cls-8" y="67.02" width="38" height="11.4"/><rect class="cls-8" x="0.5" y="5.42" width="36.8" height="11.4"/></g><circle class="cls-9" cx="19" cy="71.92" r="2.8"/></svg>