<svg id="Layer_1" data-name="Layer 1" xmlns="http://www.w3.org/2000/svg" viewBox="0 0 118.75 45.67"><defs><style>.cls-1{fill:#2f313f;}.cls-2{fill:#00ead9;}.cls-3{fill:#00b5ad;}.cls-4{fill:#eaeaea;}.cls-5{fill:#e5e5e5;}.cls-6{fill:none;}.cls-7{fill:#626572;}</style></defs><title>icon3</title><path class="cls-1" d="M103,22.91H99V45.67h4c4.39,0,8-5.1,8-11.38S107.35,22.91,103,22.91Z" transform="translate(0 0)"/><ellipse class="cls-1" cx="98.99" cy="34.29" rx="7.94" ry="11.38"/><path class="cls-1" d="M49.25,22.91h-4V45.67h4c4.39,0,7.94-5.1,7.94-11.38S53.64,22.91,49.25,22.91Z" transform="translate(0 0)"/><ellipse class="cls-1" cx="45.28" cy="34.29" rx="7.94" ry="11.38"/><path class="cls-1" d="M19.58,24.81h-4V45.67h4c4.39,0,7.94-5.1,7.94-11.38S24,24.81,19.58,24.81Z" transform="translate(0 0)"/><path class="cls-1" d="M71.2,24.81h-4V45.67h4c4.39,0,7.94-5.1,7.94-11.38S75.59,24.81,71.2,24.81Z" transform="translate(0 0)"/><path class="cls-2" d="M118.75,28.45v5.78a4,4,0,0,1-3.35,4l-9.27,1.45H35.85L32.77,37.1C30,36.33,29.3,15.89,29.3,15.89l.69-2L33.49,4a12.12,12.12,0,0,0,1.39-1.19c.26-.26.5-.53.73-.81C37.48-.18,34,0,37.46,0H64.73A20.34,20.34,0,0,1,74.88,2.78c.65.36,1.29.76,1.93,1.19.45.3.91.64,1.35,1L92,13.9l23,9a5.9,5.9,0,0,1,2.6,2l.06.1a5.63,5.63,0,0,1,1.07,2.86A2.91,2.91,0,0,1,118.75,28.45Z" transform="translate(0 0)"/><path class="cls-3" d="M86.86,28.35v5.4a6,6,0,0,1-6,6H14L8.41,37.5C3.7,36.21-.59,33.25.07,27.32L1.31,17.4A5,5,0,0,1,5.2,13.14l.27-.06a11.24,11.24,0,0,0,5.34-2.73L15.24,6c4.07-3.69,8.79-6,14-6h9.69a16.66,16.66,0,0,1,9.21,2.78A17,17,0,0,1,51.86,6.2l7.83,7.7L83,22.78A6,6,0,0,1,86.86,28.35Z" transform="translate(0 0)"/><ellipse class="cls-1" cx="15.61" cy="34.29" rx="7.94" ry="11.38"/><ellipse class="cls-4" cx="15.61" cy="34.29" rx="4.65" ry="7.65"/><ellipse class="cls-1" cx="67.23" cy="34.29" rx="7.94" ry="11.38"/><ellipse class="cls-5" cx="67.23" cy="34.29" rx="4.65" ry="7.65"/><path class="cls-6" d="M93.8,30.48l.54.93-.48-.86Z" transform="translate(0 0)"/><path class="cls-7" d="M92,13.9H59.69L51.86,6.2a17,17,0,0,0-3.77-3.42H69A19.91,19.91,0,0,1,79.8,6Z" transform="translate(0 0)"/><path class="cls-1" d="M59.69,13.9H20.06a3,3,0,0,1-2.88-3.12,3,3,0,0,1,1-2.14L21,6.45A16.73,16.73,0,0,1,31.4,2.78H48.09A17,17,0,0,1,51.86,6.2Z" transform="translate(0 0)"/><path class="cls-4" d="M118.75,28.45v2h-4.07a2,2,0,0,1-1.58-.8l-1.61-2.14a2,2,0,0,0-1.59-.79H96a2,2,0,0,0-1.58.79l-1.61,2.14a2,2,0,0,1-1.59.8H83.36a2,2,0,0,1-1.59-.82L80.7,28.16a2,2,0,0,1,.47-2.79A2.06,2.06,0,0,1,82.3,25h35.34a5.63,5.63,0,0,1,1.07,2.86A2.88,2.88,0,0,1,118.75,28.45Z" transform="translate(0 0)"/></svg>